<svg xmlns="http://www.w3.org/2000/svg" viewBox="0 0 64 64" role="img" aria-labelledby="title">
  <title id="title">Kusama Forum favicon</title>
  <defs>
    <linearGradient id="bg" x1="10" y1="10" x2="54" y2="54" gradientUnits="userSpaceOnUse">
      <stop offset="0" stop-color="#1f1f2b"/>
      <stop offset="1" stop-color="#0f1117"/>
    </linearGradient>
    <linearGradient id="outer" x1="14" y1="16" x2="50" y2="48" gradientUnits="userSpaceOnUse">
      <stop offset="0" stop-color="#ff6b6b"/>
      <stop offset="0.55" stop-color="#ffd166"/>
      <stop offset="1" stop-color="#7c3aed"/>
    </linearGradient>
    <linearGradient id="inner" x1="18" y1="18" x2="46" y2="46" gradientUnits="userSpaceOnUse">
      <stop offset="0" stop-color="#ffffff"/>
      <stop offset="1" stop-color="#e5e7eb"/>
    </linearGradient>
  </defs>
  <rect x="4" y="4" width="56" height="56" rx="16" fill="url(#bg)"/>
  <path d="M32 13.5c10.2 0 18.5 8.3 18.5 18.5S42.2 50.5 32 50.5 13.5 42.2 13.5 32 21.8 13.5 32 13.5Zm0 4.7c-7.6 0-13.8 6.2-13.8 13.8S24.4 46.8 32 46.8 45.8 40.6 45.8 33 39.6 18.2 32 18.2Z" fill="url(#outer)"/>
  <path d="M32 18.2c8.2 0 14.8 6.6 14.8 14.8S40.2 47.8 32 47.8 17.2 41.2 17.2 33 23.8 18.2 32 18.2Zm0 4.6c-5.6 0-10.2 4.6-10.2 10.2S26.4 43.2 32 43.2 42.2 38.6 42.2 33 37.6 22.8 32 22.8Z" fill="url(#inner)" opacity="0.95"/>
  <path d="M22.2 41.5 41.8 21.9" fill="none" stroke="#0f1117" stroke-linecap="round" stroke-width="5.2"/>
  <path d="M22.2 21.9 41.8 41.5" fill="none" stroke="#0f1117" stroke-linecap="round" stroke-width="5.2"/>
  <path d="M24.4 39.3 39.6 24.1" fill="none" stroke="#ffffff" stroke-linecap="round" stroke-width="2.4" opacity="0.8"/>
  <path d="M24.4 24.1 39.6 39.3" fill="none" stroke="#ffffff" stroke-linecap="round" stroke-width="2.4" opacity="0.8"/>
</svg>
